<svg preserveAspectRatio="none" width="100%" height="100%" overflow="visible" style="display: block;" viewBox="0 0 144 144" fill="none" xmlns="http://www.w3.org/2000/svg">
<g id="logo 3">
<g id="Union" filter="url(#filter0_d_4202_279)">
<path d="M87.3919 56.0778C87.6887 56.3375 88.6159 57.08 89.9515 57.9704C91.621 59.0834 102.418 67.8759 107.649 72.7731C112.88 77.6702 115.885 83.7916 116.33 87.4645C116.776 91.1375 117.443 97.1486 113.547 103.159C109.652 109.169 105.979 111.172 101.304 113.064C96.6294 114.956 89.3949 115.624 82.1605 114.289C76.373 113.22 70.5487 110.356 68.3597 109.057V96.3688L70.4739 95.2565C71.2161 97.0375 73.3683 101.378 76.0394 104.494C79.3784 108.389 85.3889 110.727 89.0618 110.727C92.7345 110.727 97.075 110.616 101.638 107.388C106.201 104.161 107.537 97.9274 106.869 93.8093C106.202 89.6912 103.976 86.9085 99.8577 81.9001C96.5633 77.8933 89.8776 72.6623 86.9466 70.5475C87.1321 69.5458 87.5478 66.8963 87.7259 64.3141C87.9039 61.732 87.5774 57.7473 87.3919 56.0778ZM55.4368 28.027C56.3267 28.0283 56.2164 27.8843 59.7777 28.2487C65.2312 28.8067 70.1289 30.3634 76.473 35.7057C83.0455 41.2406 86.8245 51.9564 86.7132 58.5231C86.602 65.0898 87.6027 73.9942 79.7005 86.1257C73.3786 95.8307 62.3751 98.9245 57.6634 99.2585C53.397 99.7408 43.0167 98.7241 35.6263 90.7995C26.3885 80.8938 24.9418 68.9847 25.0531 63.6423C25.1644 58.2998 26.1657 46.7249 33.7337 38.0436C39.7885 31.0985 48.2033 28.6197 51.6536 28.2487L55.4368 28.027ZM55.8685 31.6081C54.1246 31.534 49.7695 32.1201 46.2972 34.613C41.9565 37.7294 38.2835 45.854 37.7269 52.7546C37.1704 59.6552 36.6141 68.7822 38.7288 77.7975C40.8435 86.8128 44.6272 90.9309 48.0775 93.3796C51.5275 95.828 57.871 95.2721 59.2073 95.0495C60.5429 94.8269 64.8843 94.6043 69.3363 87.8151C73.7882 81.0259 74.7893 67.8923 74.6781 63.2175C74.5667 58.5428 74.0111 46.6328 70.3382 40.6227C66.6655 34.613 63.4377 33.3882 62.2132 32.7204C60.989 32.0527 58.2065 31.6082 57.4271 31.6081H55.8685ZM83.5062 29.2682C88.7372 28.1553 94.5248 28.0439 98.4202 29.0456C101.537 29.847 107.881 32.125 110.663 33.1638C110.515 34.3881 110.24 37.2601 110.329 38.9518C110.418 40.6439 110.367 47.5963 110.329 50.861L108.326 51.0837C108.288 49.4513 107.925 45.5854 106.768 43.1813C105.321 40.1763 103.095 36.6145 99.6448 34.8337C96.1945 33.0529 93.9682 32.6071 90.5179 32.3845C87.0676 32.1619 83.9511 33.3869 82.2816 35.5016C80.9461 37.1933 80.389 38.2839 80.2777 38.6179L75.4925 33.9431C76.4203 32.7557 79.3216 30.1586 83.5062 29.2682Z" fill="var(--fill-0, white)"/>
</g>
</g>
<defs>
<filter id="filter0_d_4202_279" x="11.6912" y="15.5343" width="118.339" height="113.701" filterUnits="userSpaceOnUse" color-interpolation-filters="sRGB">
<feFlood flood-opacity="0" result="BackgroundImageFix"/>
<feColorMatrix in="SourceAlpha" type="matrix" values="0 0 0 0 0 0 0 0 0 0 0 0 0 0 0 0 0 0 127 0" result="hardAlpha"/>
<feOffset dy="0.890408"/>
<feGaussianBlur stdDeviation="6.67806"/>
<feComposite in2="hardAlpha" operator="out"/>
<feColorMatrix type="matrix" values="0 0 0 0 0 0 0 0 0 0.435294 0 0 0 0 1 0 0 0 1 0"/>
<feBlend mode="normal" in2="BackgroundImageFix" result="effect1_dropShadow_4202_279"/>
<feBlend mode="normal" in="SourceGraphic" in2="effect1_dropShadow_4202_279" result="shape"/>
</filter>
</defs>
</svg>
